<?xml version="1.0" encoding="utf-8"?>
<!-- Generator: Adobe Illustrator 28.3.0, SVG Export Plug-In . SVG Version: 6.00 Build 0)  -->
<svg version="1.1" id="Livello_1" xmlns="http://www.w3.org/2000/svg" xmlns:xlink="http://www.w3.org/1999/xlink" x="0px" y="0px"
	 viewBox="0 0 512 512" style="enable-background:new 0 0 512 512;" xml:space="preserve">
<g>
	<path d="M426.7,254.4c0.5-1.5,1.2-4.3,2.5-6.8c8.5-15.8,17.2-31.6,25.7-47.4c0.4-0.7,0.5-1.6,0.8-2.4c-0.9,0.1-1.8,0.1-2.7,0.2
		c-0.2,0-0.3,0.1-0.5,0.2c-0.8,0.4-1.7,0.8-2.5,1.2c0.6-0.9,1.2-1.9,1.9-2.8c0.5-0.6,1-1.3,1.6-1.5c4.1-1.4,5.4-4.9,6.9-8.3
		c0.6-1.3,1.9-2.4,2.8-3.6c0.3-0.3,0.4-0.8,0.5-1.2c-0.4,0.1-1,0.1-1.3,0.3c-3.5,3-7.4,5.6-10.4,9.1c-5.7,6.8-10.9,14.1-16.4,21.1
		c-6.8,8.7-13.3,17.7-20.5,26c-3.9,4.5-8.5,8.5-13.4,12c-13.7,9.8-28.4,17.7-43.6,24.7c-10.7,5-21.7,4.7-32.8,0.7
		c-5.6-2-8-6.5-9.5-11.8c-0.1-0.5,0.9-1.9,1.5-1.9c3.1-0.1,6.2-0.3,9.3,0.2c2.9,0.5,5.6,1.8,8.4,2.9c5.3,2.2,10.7,2.6,16.2,1.2
		c14-3.5,27.5-8,39.7-16c8.9-5.8,16.1-13.4,23.4-20.9c7.2-7.3,12.6-15.9,18.3-24.3c7.2-10.7,15.5-20.3,26.2-27.7
		c2.2-1.5,4.4-3.1,6.8-3.9c3-0.9,4.2-3,4.9-5.6c0.9-3.3,0.9-6.7-0.8-9.9c-1-1.8-0.9-3.4,0-5.2c7.3-14.9,14.6-29.7,22-44.6
		c0.6-1.3,1.8-2.3,2.8-3.4c0.2-0.2,0.9-0.1,1.4-0.1c-0.1,0.4,0,0.9-0.2,1.3c-5.2,10.8-10.5,21.6-15.8,32.5c-0.3,0.7-0.7,1.4-0.8,2.1
		c-0.1,0.7,0.2,1.4,0.4,2.1c0.7-0.4,1.6-0.6,1.9-1.1c1.3-2.3,2.5-4.7,3.7-7c4.2-8.3,8.3-16.7,12.5-25c0.5-0.9,1.1-1.8,1.8-2.6
		c0.2-0.3,0.9-0.2,1.3-0.4c0.1,0.5,0.4,0.9,0.2,1.3c-0.2,0.8-0.6,1.5-1,2.3c-5.2,10.8-10.5,21.7-15.7,32.5c-0.6,1.2-1.1,2.4,0.5,3.1
		c1.4,0.6,2.4,0,2.9-1.4c0-0.1,0.1-0.1,0.1-0.2c5-10.1,9.9-20.3,14.9-30.4c0.6-1.3,1.2-2.5,2-3.7c0.4-0.5,1.2-0.7,1.8-1
		c0.1,0.7,0.3,1.4,0.1,2c-0.6,1.5-1.4,3-2.1,4.5c-4.5,9.4-9,18.7-13.4,28.1c-0.6,1.2-2.2,2.8-0.3,3.8c0.6,0.3,2.9-1.1,3.4-2.2
		c4.1-7.8,8.1-15.7,12-23.6c1.3-2.7,2.4-5.6,3.7-8.4c0.2-0.5,0.8-0.9,1.2-1.3c0.2,0.6,0.7,1.2,0.6,1.7c-0.4,1.7-0.9,3.5-1.7,5.1
		c-4.2,8.8-8.5,17.5-12.7,26.3c-2.4,4.9-4.8,9.8-6.9,14.8c-1.4,3.2-3.5,5.2-6.8,6.2c-2.5,0.7-5.1,1.7-5.9,4.6c-0.2,0.6,0,1.4,0,2.1
		c0,0.2,0.3,0.5,0.2,0.7c-1.7,3-3.5,6-5.2,9.1c-1.1,1.9-2.7,3.9-2.9,5.9c-0.4,3.8-2,6.7-4.5,9.3c-0.5,0.6-1.1,1.2-1.4,1.9
		c-10,22-19.9,44-29.8,66c-1.2,2.6-2.5,2.8-4.3,0.6C427.5,263.7,427,259.8,426.7,254.4z"/>
	<path d="M240.5,284.6c0.4-10,0.8-19.9,1.2-29.9c0.1-1.3,0.1-2.7,0.5-3.9c0.3-1,1.2-1.8,1.8-2.6c0.8,0.7,2.1,1.2,2.4,2.1
		c0.7,2.1,1.5,4.3,1.4,6.4c-0.4,11-1.2,22.1-1.6,33.1c-0.6,14.5-1.5,29,0.9,43.4c0.6,3.4,1.5,6.9,3,10.1c1.7,3.6,5.8,4,8.7,1.1
		c0.6-0.6,1-1.5,1.1-2.3c1.7-10.6,7.7-17.9,17.1-22.4c5.5-2.6,14.5,1.5,17,7.2c1,2.4,0.4,3.8-2.1,4.4c-1.5,0.3-2,1.1-2.4,2.6
		c-2.6,9.3-8.7,15.6-17.7,18.9c-3.5,1.3-7.2,1.2-9.7-2.5c-0.9-1.4-1.2-0.2-1.7,0.3c-2.5,3.2-4.7,6.6-7.6,9.4
		c-4.7,4.5-9.3,3.3-10.8-3c-1.2-5-1.2-10.3-1.8-15.4c-0.1-1-0.3-2-0.4-3c-0.3,0.9-0.5,1.9-0.8,2.8c-1.4,3.8-2.6,7.7-4.4,11.3
		c-2.4,5-6.5,6.5-11.8,4.9c-4.8-1.5-8.5-4.4-10.6-9.1c-0.9-2.1-1.4-1.8-2.8-0.4c-2.2,2.2-4.6,4.3-7,6.2c-1.2,1-2.6,1.7-4.1,2.3
		c-5.9,2.3-10.1,0.2-11.6-5.9c-0.5-2.2-1-1.9-2.3-0.7c-3.1,3-6.4,5.7-10.7,6.8c-4.4,1.2-7.8-1.8-6.6-6.2c0.6-2.5,1.8-5.1,3.5-6.9
		c3.7-3.8,7.8-7.3,11.9-10.7c1.3-1.1,1.7-1.9,1.3-3.5c-0.4-1.6-1.1-1.6-2.3-0.8c-1.5,1-3,2-4.6,2.9c-1.3,0.7-2.6,1.6-4,2
		c-0.9,0.2-2.4,0.1-2.8-0.5c-0.4-0.5-0.3-2.1,0.2-2.8c0.9-1.2,2.1-2.5,3.5-3c5.3-2.1,10.7-4.2,16.2-5.9c3.8-1.1,4.7-0.3,6,3.5
		c1.3,3.9,2.5,7.8,3.8,11.7c0.4,1.2,1,2.4,1.6,3.6c0.9,1.8,2.2,3.3,4.4,3c2.4-0.3,4.5-1.1,5.9-3.5c1.2-2.1,2.7-4.3,4.6-5.7
		c5.9-4.4,11.9-8.6,18.1-12.5c4.1-2.5,6.1-5.3,5.8-10.4c-0.5-8.8-0.1-17.6-0.1-26.5C240.3,284.6,240.4,284.6,240.5,284.6z
		 M229.1,341.5c0.7-0.4,2.2-1.1,3.4-2.2c4.3-4,5.7-9.5,7.5-14.7c0.1-0.3,0-0.6-0.1-0.9c-0.4,0.2-0.8,0.3-1.1,0.6
		c-3.6,2.9-7.2,5.7-10.8,8.6c-1.1,0.9-2.1,2.1-2.9,3.3C223.7,338.7,225.3,341.5,229.1,341.5z M269.2,348c1-0.2,1.4-0.1,1.7-0.3
		c5.9-2.5,10.3-6.6,13.1-12.3c0.2-0.3,0-0.8,0-1.1c-0.4,0.1-0.8,0.1-1.1,0.3c-3.7,2.4-7.5,4.7-11.1,7.3c-1.3,0.9-2.2,2.4-3.1,3.8
		C268.5,346.2,269.1,347.2,269.2,348z M185.3,340.5c-0.3-1.3-0.6-2.6-0.9-3.8c-1,1-2,2.1-3,3.1c-0.2,0.2-0.3,0.4-0.3,0.7
		c-0.4,1.3-1.9,3,0.1,3.8c0.8,0.4,2.5-1,3.6-1.8C185.2,342.1,185.2,341.1,185.3,340.5z"/>
	<path d="M25.2,371.2c-2-0.4-3.4-0.6-4.7-1c-6.5-1.8-12.4-4.9-17.7-9c-3.6-2.8-3.6-4.4-0.2-7.2c1.6-1.3,3.3-2.5,5.2-3.3
		c19.1-8.3,38.3-16.5,57.4-24.7c5.1-2.2,8.9-5.3,10.3-10.8c0.8-2.9,0.3-4-2.6-4.2c-10.3-0.8-20.6-1.4-30.8-2
		c-2.8-0.2-5.6-0.2-8.4-0.4c-2.8-0.2-4.2-1.4-4.9-4.1c-0.8-3.3-0.3-6.4,1-9.4c8.3-18.6,21.3-32.7,39.8-41.7c1.2-0.6,2.9-0.7,4.3-0.5
		c6.3,0.9,11.7,3.9,16.8,7.5c1.1,0.8,2.5,2.5,2.2,3.5c-0.3,1.1-2,2.2-3.3,2.8c-10.6,4.5-21.4,8.6-31.9,13.3
		c-7.5,3.4-13.5,9.1-18.8,15.4c-0.4,0.5-0.8,1-1.2,1.6c-2.9,4.1-2.1,6.2,2.9,7c3.2,0.5,6.4,0.5,9.6,0.6c7.7,0.2,15.3,0.3,23,0.5
		c1.8,0.1,3.6,0.4,5.3,1c3.4,1.2,5.3,3.6,5.3,7.3c0,11.5-5.2,20.4-14.1,27c-13.2,9.9-26.8,19.2-40.3,28.7
		C28,370.2,26.3,370.7,25.2,371.2z"/>
	<path d="M346.5,371.4c-4.4-0.6-8.8-1.1-13.2-1.8c-0.8-0.1-1.9-0.8-2-1.3c-0.1-0.7,0.5-1.7,1.1-2.3c4.6-4.2,9.4-8.3,14-12.5
		c2.8-2.6,5.5-5.5,8.1-8.3c0.6-0.6,1-1.8,0.8-2.6c-2.2-11.3-1.4-22.7-1.9-34c-0.2-3.8-0.5-7.6-0.4-11.4c0.1-2.8-1.1-2.7-2.9-1.8
		c-5,2.5-10,5.1-14.9,7.7c-2,1.1-3.9,2.4-6,3.4c-1.8,0.8-2.6,0.1-2.1-1.8c0.8-3.4,2.1-6.3,5.6-7.9c16.3-7.3,32.8-14.2,50.4-18
		c4.5-1,9.1-1.1,13.7-1.3c2.7-0.1,4.9,1.3,6.5,3.4c6.8,9,8,21.2,1.9,30.1c-11.8,17.3-24,34.2-38.8,49c-1.6,1.6-3.2,3.1-4.6,4.8
		C357.8,369.7,352.8,371.8,346.5,371.4z M360.8,313.8C360.8,313.8,360.8,313.8,360.8,313.8c0.3,6.7,0.6,13.3,0.9,20
		c0,0.8,0.3,1.5,0.5,2.3c0.6-0.4,1.3-0.8,1.8-1.3c8.4-9.1,16.8-18.2,25-27.4c4.1-4.6,7.5-9.6,9.4-15.6c1.6-5-1-9-6.2-9.6
		c-1.9-0.2-4-0.2-5.9,0.4c-8.4,2.8-16.6,5.7-24.9,8.7c-0.7,0.2-1.4,1.6-1.4,2.4C360.1,300.5,360.5,307.1,360.8,313.8z"/>
	<path d="M448.5,331.5c0.4,16.9,0.8,33.8,1.2,50.7c0,1.1,0.3,2.1,0.2,3.2c0,0.8-0.1,2.1-0.6,2.4c-0.6,0.3-1.8,0-2.5-0.4
		c-3.4-2.4-5.8-5.6-5.6-9.9c0.4-9,0.9-17.9,1.4-26.9c0.1-1.6,0.1-3.1,0.2-4.7c0-0.5-0.1-0.9-0.2-1.4c-0.4,0.3-0.8,0.5-1.1,0.9
		c-1.6,1.7-3.2,3.4-4.6,5.1c-4.2,5-9.9,6.6-16,7.2c-1.8,0.2-3.6,0.1-5.4,0c-11.4-0.5-19.6-11.2-17.2-22.5c0.8-3.5,2.7-6.3,5.8-8.3
		c7.3-4.8,15.5-6.9,24.1-7c4.2,0,5.4,2,3.9,6c-2,5.2-5.9,9.1-9.6,13.1c-1.6,1.7-3.3,3.2-4.9,4.9c-0.1,0.1,0.2,1.1,0.3,1.1
		c7.1,0,14.2,0.7,20.8-3.4c3.7-2.3,5.1-4.9,4.6-8.9c-0.2-1.5,0-3-0.2-4.4c-0.2-1.5-0.8-2.5-2.5-2.9c-2.6-0.6-2.4-2.9-2.4-4.8
		c0.2-7.5,0.3-15,0.8-22.5c0.3-5.3,1.3-10.5,4.5-15c1.1-1.6,2.7-2.8,4.2-4.1c0.5-0.4,1.2-0.5,1.8-0.7c0.1,0.6,0.2,1.2,0.2,1.9
		c-0.2,6.2-0.6,12.4-0.6,18.5c-0.1,11,0,21.9,0,32.9C448.7,331.5,448.6,331.5,448.5,331.5z M407.7,343.7c1-0.2,1.4-0.2,1.6-0.4
		c3.6-3.1,7.3-6.3,10.9-9.5c0.2-0.1,0.1-0.5,0.1-0.8c-0.4,0-0.8,0-1.2,0.1c-2.8,0.9-5.7,1.7-8.4,2.7c-2.1,0.8-4.2,1.8-6.2,2.8
		c-0.5,0.3-1,1.7-0.9,1.8C404.9,341.7,406.5,342.8,407.7,343.7z"/>
	<path d="M346.1,155.1c-0.5,5.9-3,10.9-8.8,13.9c-5.1,2.6-9.4,0.7-11.1-4.7c-0.4-1.3-0.8-2.7-1-4.1c-0.8-4.4-6.4-8.7-10.9-8.3
		c-4.2,0.4-4.2,0.1-5.3-4.1c-0.2-0.7-0.4-1.4-0.6-2.1c-3.1-9.8-7.9-13.4-18.2-12.4c-16.3,1.6-32.6,3.6-48.9,5.4
		c-1.4,0.2-3,0.5-3.5-1.3c-0.6-2,0.9-2.4,2.3-3.1c3.2-1.6,6.3-3.2,9.3-5.1c8.7-5.4,18-8.5,28.2-8.9c0.7,0,1.4-0.3,2.1-0.4
		c-0.5-0.6-0.9-1.1-1.4-1.7c-0.6-0.7-1.3-1.4-2-2.1c0.9,0.2,1.9,0.4,2.8,0.6c3.9,0.9,7.8,1.9,11.8,2.6c4.4,0.8,8.3,2.5,11.8,5.4
		c3.4,2.8,7.7,3.7,11.8,5.1c9.9,3.4,20.4,6,27.7,14.6C344.7,147.4,346.1,150.8,346.1,155.1z"/>
	<path d="M131.1,321.3c0.5,22.2,0.9,41.1,1.3,60.1c0,1.4,0.3,2.8,0.3,4.2c0,0.8-0.1,2-0.5,2.2c-0.7,0.2-1.9,0.1-2.5-0.4
		c-3.7-2.6-6-6.1-5.8-10.8c0.4-9,1-17.9,1.5-26.9c0-0.7-0.1-1.4-0.1-2.2c-0.6,0.5-1.3,0.8-1.8,1.4c-3.3,3.2-6.6,6.5-11.2,8
		c-5.5,1.8-9.2-0.1-10.8-5.6c-0.8-2.6-0.6-2.4-2.9-0.8c-3.2,2.3-6.4,4.7-10,6.2c-4.6,1.9-7.9-1.6-6.8-6.5c0.9-4.2,3.7-7.4,6.7-10.1
		c2.8-2.5,5.9-4.7,8.8-7.2c0.7-0.6,1.3-1.7,1.3-2.5c-0.1-2.3-0.7-2.5-2.7-1.3c-2.5,1.5-4.9,3.1-7.5,4.3c-1,0.5-2.5-0.1-3.8-0.3
		c0.3-1.2,0.4-2.5,1.1-3.5c0.7-1,1.8-1.9,2.9-2.3c5.4-2.1,10.9-4.3,16.4-5.9c3.6-1.1,4.5-0.2,5.7,3.5c1.7,5,3.2,10,5.2,14.9
		c1.6,3.9,4.3,4.5,8,2.5c1.4-0.7,2.1-1.7,2-3.3c-0.1-3.3,0.1-6.6,0-9.9c0-1.7-0.5-3-2.6-3.7c-1-0.3-2.2-2.1-2.3-3.3
		c-0.5-10.1-0.3-20.3,1.6-30.3c0.9-4.9,2.9-9.7,7.5-12.6c0.6-0.4,1.3-0.5,2-0.7c0.1,0.6,0.2,1.3,0.2,1.9
		C131.8,295,131.4,309.8,131.1,321.3z M100.1,341c-0.2-0.2-0.4-0.3-0.5-0.5c-0.1-0.8-0.1-1.6-0.2-2.5c-0.1-0.5-0.3-0.9-0.4-1.4
		c-0.4,0.2-1,0.4-1.2,0.7c-1.1,1.6-2.1,3.3-2.9,5c-0.2,0.4,0,1.4,0.4,1.7c0.4,0.3,1.4,0.4,1.8,0.1C98.1,343.3,99,342.1,100.1,341z"
		/>
	<path d="M215.1,140.6c0.3-7.9,1.2-18.1,5.2-27.8c1.2-2.9,2.9-5.5,4.4-8.2c0.2-0.3,0.5-0.5,0.7-0.7c0,0.4,0,0.7-0.1,1.1
		c-2,6.1-4.5,12.1-5.9,18.3c-2.7,12-1.5,24.1,1.4,36c6.4,26.5,18.1,50.5,35.4,71.7c10,12.3,22.9,19.8,38.9,21.8
		c4.8,0.6,9.5,1.8,13.8,4.3c2,1.2,3.1,2.7,2.7,5c-0.4,2.5-2,4-4.4,4.4c-1.6,0.3-3.4,0.3-4.9-0.2c-7.6-2.6-15.4-2.3-23.3-2
		c-3.4,0.1-7-0.1-10.3-0.9c-7.4-1.7-11.8-6.5-12.7-14c-1.1-9-4.9-16.6-10.7-23.5c-13.5-16.2-22.1-34.7-26.3-55.5
		C217.3,161.3,215.1,152.4,215.1,140.6z"/>
	<path d="M283.6,151.9c13.7,0.6,23.4,5.9,30.2,16.5c1.1,1.7,2.1,3.5,3.5,4.8c1.1,1,2.8,1.6,4.4,2c2.3,0.6,2.9,2.1,1.5,4
		c-5.5,7.3-14.7,6.8-19.5-0.8c-2.8-4.4-5.4-8.9-8.9-12.7c-4.7-5.2-10.9-7.8-18.1-7.6c-0.5,0-1,0-1.5,0.2c-0.4,0.1-0.7,0.3-1,0.5
		c0.4,0.1,0.8,0.2,1.2,0.3c4.5,1.1,7.6,3.6,8.7,8.2c1.1,4.6,0.2,8.9-3.3,12.3c-3.2,3.3-7.2,3.7-11,1.2c-6.5-4.3-11-10.6-15.7-16.7
		c-1.1-1.4-0.7-2.8,0.9-3.5c6.2-2.5,12.3-5.1,18.6-7.1C277.1,152.4,281,152.3,283.6,151.9z M277.2,166.5c-0.7-1.2-1.4-2.2-1.9-3.3
		c-0.7-1.5-1.9-1.9-2.9-1c-0.7,0.6-0.9,2.2-0.7,3.1c0.2,0.9,1.3,1.7,2.1,2.4c0.6,0.5,1.3,0.9,1.9,1.3
		C276.2,168.3,276.7,167.5,277.2,166.5z"/>
	<path d="M409.5,190.4c0.7-6.4-4.8-10.7-10.5-8.1c-5.3,2.4-10.6,2.3-16.2,1.9c-9.2-0.8-17.8,0.7-24.4,8.1c-0.6,0.7-2.2,0.6-3.3,0.8
		c-0.1-1-0.6-2.1-0.4-2.9c1.6-6.1,5.5-10.6,10.5-14.3c6.2-4.6,13.1-7.9,20.8-9.4c1.7-0.3,3.7-0.3,5.3,0.2c8.9,3,18,2.5,27.2,2
		c1.4-0.1,2.8-0.2,4.2-0.3c0.5,0,1,0.3,1.5,0.4c-0.3,0.5-0.4,1.2-0.8,1.4c-1.3,0.7-2.6,1.3-4,1.7c-1.1,0.3-2,0.3-1,1.8
		c4.1,6.2,1.9,14.3-5.1,19.5c-0.6,0.4-2.1,0.7-2.4,0.3C410.3,192.7,410,191.4,409.5,190.4z"/>
	<path d="M141,321.1c6.8,0.8,13.4,2.7,16.3,10.6c0.2,0.5,0.6,0.9,0.9,1.3c0.2-0.5,0.5-1,0.7-1.6c3.5-9.6,7.1-19.1,10.5-28.8
		c1.8-5.1,5.6-7.8,10.3-9.5c0.9-0.3,1.9-0.1,2.8-0.2c-0.3,0.8-0.6,1.6-0.9,2.4c-5.3,10.9-10.8,21.7-15.8,32.7
		c-3.4,7.3-6.2,14.9-9.3,22.3c-0.8,1.9-1.9,3.7-3.1,5.3c-1.5,1.9-2.7,1.7-3.7-0.5c-1.5-3.3-2.7-6.7-4.3-10c-2.8-6-5.8-12-8.8-18
		C134.3,322.6,135.2,321,141,321.1z"/>
	<path d="M380.3,186.9c3.9,0.7,7.8,1.1,11.6,2.2c2.1,0.6,4.1,1.8,5.8,3.2c5.5,4.4,6.2,9.6,2.2,15.4c-1.1,1.6-2.4,3.1-3.7,4.6
		c-0.4,0.4-1.1,0.6-1.6,0.8c-0.3-0.6-0.5-1.1-0.8-1.7c-0.1-0.2-0.1-0.5,0-0.7c1.6-6.7-2.2-10.8-7.1-14.1c-2-1.4-4.5-2.1-6.7-3
		c-0.3-0.1-0.6,0-1,0c0.1,0.3,0.2,0.6,0.3,0.8c3.6,4.9,2.7,10,0.4,15c-1.9,4.3-5.4,5.6-9.8,4.1c-6.4-2.2-10.4-6.8-12.2-13.3
		c-0.9-3.5,0.4-6.3,3.4-8.2C367,188.2,373.5,187.5,380.3,186.9z M370.8,194.5c-0.3,0.3-1.3,0.7-1.5,1.4c-0.2,0.6,0.4,1.5,0.9,2.2
		c0.8,1,1.7,1.8,2.6,2.7c0.4,0.4,1.1,1,1.4,0.9c0.7-0.3,1.4-0.9,1.6-1.6C376.2,198.6,372.7,194.5,370.8,194.5z"/>
	<path d="M315.4,339.8c-4.7-0.2-8.3-2-11.3-5.2c-0.4-0.4-0.9-0.6-1.4-0.9c0,0.5,0,1,0,1.4c0.4,6.7,0.8,13.5,1,20.2
		c0.2,5.3-2.9,8.9-6.7,12.1c-0.4,0.4-1.2,0.3-1.8,0.5c-0.1-0.6-0.2-1.2-0.1-1.8c2-14.2,2.5-28.6,2.5-42.9c0-3.5,0.1-7.1,0.5-10.6
		c0.2-1.4,1.3-2.6,2.1-3.9c1.2,0.9,2.8,1.6,3.5,2.8c2.9,4.9,6.6,9.1,11.1,12.5c3.4,2.6,7.1,4.8,10.5,7.4c3.2,2.3,3,4.4-0.7,5.9
		C321.7,338.5,318.5,339,315.4,339.8z"/>
	<path d="M281.4,195.9c-10.3,0-17.1-1.5-22.3-7.3c-4.2-4.7-5.8-10.3-4.5-16.5c0.1-0.7,1-1.8,1.5-1.9c0.8-0.1,2,0.5,2.4,1.1
		c9.2,15.2,23.5,18.8,39.8,17.6c0.9-0.1,1.9-0.4,2.7-0.2c0.9,0.3,2.1,1.1,2.4,1.9c0.5,1.4-0.6,2-1.9,2.2
		C293.9,194,286.3,195.2,281.4,195.9z"/>
	<path d="M466.3,334.2c0,3.3,1.1,7.3,3.2,11c1,1.8,2.8,2.6,4.6,1.5c2.2-1.3,4.2-3.1,6.3-4.7c0.5-0.4,1.1-0.6,1.7-0.9
		c0.1,0.6,0.3,1.3,0.2,1.8c-1.4,6.8-12.9,14.9-19.8,13.9c-5.9-0.8-10.2-6.6-10.3-13.6c0-5.6,4.8-12.5,9.6-13.7
		C465.8,328.5,466.7,329.2,466.3,334.2z"/>
	<path d="M455.1,317.5c0-3.5,1-4.6,4.6-5c7.3-0.7,14.6-1.3,21.8-2.4c3.1-0.5,6.1-2,9.1-3c0.6-0.2,1.3-0.1,2-0.2
		c-0.3,0.5-0.6,1.2-1.1,1.6c-4.9,3.9-9.8,7.8-14.9,11.4c-2.9,2.1-6,4.2-9.2,5.7C460.9,328.9,455.1,325,455.1,317.5z"/>
	<path d="M378.6,229.2c-2.5-1.3-5.2-2.3-7.4-4c-3.2-2.5-6-5.4-8.8-8.3c-0.7-0.7-1.5-2.4-1.1-3.1c0.8-1.6,2.3-0.6,3.4,0
		c3.5,1.7,6.9,4.2,10.6,5c3.8,0.9,8,0.3,12,0.3c0.9,0,1.8-0.3,2.7-0.2c1.3,0.2,2,1.5,1.1,2.3c-3.4,3.3-6.6,7.4-12.1,7.3
		C378.8,228.7,378.7,229,378.6,229.2z"/>
	<path d="M470.2,407.3c-1.4-0.2-2.7-0.3-4.1-0.5c-0.3-0.1-0.6-0.4-0.9-0.6c0.3-0.3,0.7-0.9,1-0.9c4,0.3,3.8-2.2,3.5-5
		c-0.1-0.7,0.1-1.5,0.1-2.2c0.1-1.7,0-3.2-2.4-2.9c-0.4,0.1-0.9-0.5-1.3-0.7c0.4-0.3,0.8-1,1.3-1c3.3-0.1,6.6-0.7,9.7,0
		c4.7,1,6.3,9,2.4,11.9c-1.7,1.2-4.3,1.2-6.5,1.7c-0.9,0.2-1.8,0-2.7,0C470.2,407.1,470.2,407.2,470.2,407.3z M472.3,400
		c0,0.8,0.1,1.7,0,2.5c-0.2,2.2,1.2,2.8,2.6,2c1.4-0.7,2.9-2.1,3.2-3.5c0.3-1.4-0.5-3.4-1.5-4.6c-0.6-0.8-2.4-0.8-3.7-0.6
		c-0.3,0-0.5,1.8-0.7,2.7C472.2,399,472.3,399.5,472.3,400z"/>
	<path d="M308.4,400.2c0-0.8,0-1.5,0.1-2.3c0.1-1.7-0.2-2.9-2.4-2.7c-0.5,0.1-1-0.4-1.5-0.7c0.4-0.4,0.8-1,1.2-1
		c3.4-0.1,7-0.7,10.2,0.1c4.4,1,5.7,9.1,2,11.8c-1.4,1.1-3.7,1.3-5.6,1.5c-2.2,0.3-4.4,0.3-6.6,0.2c-0.7,0-1.3-0.7-2-1.1
		c0.6-0.3,1.2-0.9,1.9-0.9C310.1,405.2,307.9,402,308.4,400.2z M311,400c0,0.8,0.1,1.7,0,2.5c-0.2,2.1,0.9,2.6,2.7,2.2
		c1.9-0.4,3.3-1.6,3.3-3.5c0-1.6-0.5-3.4-1.4-4.7c-0.6-0.8-2.4-0.8-3.6-0.7c-0.4,0-0.6,1.7-0.8,2.7C310.9,398.9,311,399.5,311,400z"
		/>
	<path d="M25.9,407.4c-0.9,0-1.7,0.1-2.4,0c-0.8-0.1-1.5-0.4-2.3-0.7c0.6-0.2,1.4-0.3,1.8-0.7c0.5-0.5,1-1.3,1-2
		c0.2-2.4,0.1-4.8,0.2-7.2c0-1.4-0.4-2.4-2.1-2.4c-0.4,0-0.8-0.6-1.3-0.9c0.4-0.3,0.9-0.7,1.3-0.7c2.5-0.2,5.1-0.4,7.6-0.4
		c2.8-0.1,4.9,3.9,3.5,6.6c-0.5,1-1.5,2.2-1.2,2.9c0.6,1.4,1.9,2.6,3,3.8c0.4,0.5,0.9,0.9,1.3,1.4c-0.8,0.1-1.8,0.5-2.3,0.2
		c-1.6-1.1-3.1-2.4-4.5-3.7c-0.7-0.6-1.3-1.3-2-2c-0.3,0.3-0.8,0.6-0.7,0.8c0.3,1.2,0.8,2.4,1.2,3.5c0,0.1,0.3,0.1,0.4,0.2
		c0.3,0.3,0.5,0.7,0.8,1c-0.4,0.1-0.9,0.3-1.3,0.3C27.2,407.6,26.4,407.4,25.9,407.4z M25.7,397.3c1.3,1.2,1.9,2.2,2.7,2.3
		c1.2,0.2,2.5-0.2,2.4-1.9c0-1.5-0.6-2.7-2.2-2.5C27.7,395.4,27.1,396.3,25.7,397.3z"/>
	<path d="M93.9,399c-0.5-1.5-1.2-3.3-1.6-5.1c-0.1-0.3,0.6-1.2,1-1.2c0.8-0.1,1.6,0.1,2.4,0.3c0.7,0.2,1.4,0.4,2.2,0.6
		c-0.5,0.5-1,0.9-1.3,1.5c-0.3,0.5-0.5,1-0.5,1.6c-0.2,2-0.2,4.1-0.3,6.1c-0.1,2.9-2.4,5.1-5.5,5.2c-3.8,0.1-5.3-1.1-5.5-4.7
		c-0.1-2.4,0-4.9-0.1-7.3c0-0.6-0.3-1.2-0.7-1.7c-0.2-0.4-0.7-0.6-1-0.9c0.5-0.3,1.1-0.9,1.6-0.9c1.4,0,2.8,0.2,4.1,0.4
		c0.1,0,0.1,0.9-0.1,1.3c-0.3,0.9-1,1.6-1.1,2.5c-0.1,2,0.1,4,0,5.9c0,1.5,0.3,2.9,1.9,2.9c1.1,0,2.6-0.8,3.1-1.7
		C93.3,402.6,93.4,400.9,93.9,399z"/>
	<path d="M432,407.1c-4.7,0-7.3-2.5-7.1-7.2c0.3-5.2,2.1-7.1,6.8-7.1c4.2,0,7.4,2.6,7.4,6C439.1,402.9,436.1,407.8,432,407.1z
		 M436.1,400.6c0-3.2-2.2-5.7-5.1-5.8c-1.6,0-3.1,2.2-3.1,4.9c-0.1,2.4,2.7,5.6,4.7,5.5C434.6,405.1,436.1,403.2,436.1,400.6z"/>
	<path d="M452.1,407.1c-5.4,0-6.6-2.7-7-7.3c-0.4-4.2,2.6-7,6.7-7c4.5,0,7.3,2.5,7.5,6.4C459.4,402.8,456,408,452.1,407.1z
		 M456.4,400.5c0-3.1-2.4-5.7-5.3-5.7c-1.6,0-3,2.3-3,5c0,2.3,2.6,5.4,4.5,5.4C454.8,405.2,456.4,403.2,456.4,400.5z"/>
	<path d="M366.2,399.8c-0.6-1.9-1.2-3.9-1.7-5.8c-0.1-0.4,0.5-1.3,0.9-1.3c1.2-0.1,2.4,0.1,3.6,0.3c0.4,0.1,0.8,0.6,1.2,1
		c-0.3,0.3-0.6,0.6-0.8,0.9c-0.4,0.6-1,1.2-1.1,1.9c-0.2,1.9-0.3,3.9-0.3,5.9c-0.1,3-2.3,5.2-5.4,5.3c-3.9,0.2-5.5-1.1-5.7-4.7
		c-0.2-2.4,0-4.7-0.1-7.1c0-0.6-0.4-1.3-0.8-1.8c-0.2-0.3-0.6-0.5-0.8-0.8c0.4-0.3,0.7-0.8,1.1-0.8c1.5,0,3.1,0.1,4.6,0.2
		c0,0,0.1,1.2,0,1.3c-1.7,0.4-1.3,1.6-1.3,2.8c0.1,1.8,0.1,3.6,0.1,5.4c0,1.5,0.2,2.9,1.9,3.3c1.8,0.4,2.9-0.7,3.5-2.1
		c0.4-1.1,0.5-2.4,0.8-3.6C366,399.9,366.1,399.8,366.2,399.8z"/>
	<path d="M417.9,399.5c-0.3,1.8,0.1,3.3-2,1.5c-1-0.9-2-0.4-2.1,1.2c-0.1,1.8-0.3,3.5,2.2,3.9c0.3,0,0.5,0.5,0.8,0.8
		c-0.3,0.2-0.7,0.5-1,0.5c-2.5,0-5.1-0.1-7.6-0.2c-0.3,0-0.6-0.4-1-0.6c0.3-0.3,0.7-0.8,1-0.8c3.5,0.6,3.4-1.7,3.2-4
		c-0.1-1.6,0.1-3.3,0-4.9c0-1.2-0.5-1.8-1.9-1.2c-1.9,0.8-3.2,1.9-3.3,4.1c0,0.7-0.4,1.4-0.8,2c-0.3,0.3-1.1,0.6-1.5,0.4
		c-0.4-0.1-0.6-0.9-0.6-1.4c0.1-3.9,4.8-8.2,8.6-8.1c1.7,0,3.5,0,5.2,0.2c0.6,0,1.4,0.3,1.6,0.7c0.3,0.5,0,1.3,0,1.9
		c-0.7-0.1-1.3-0.1-2-0.2c-0.9-0.1-1.7-0.1-2.6-0.1c0,1.1-0.1,2.3-0.1,3.4c0.8,0,1.7-0.1,2.5,0.1
		C417.1,398.7,417.5,399.2,417.9,399.5z"/>
	<path d="M70.8,407.2c-1.8,0-2.9,0.1-3.9,0c-0.6-0.1-1.1-0.5-1.6-0.7c0.5-0.2,0.9-0.5,1.4-0.7c0.2-0.1,0.5,0,0.7,0
		c1.6,0.1,2.2-0.6,2-2.2c-0.2-1.5,0-3.1-0.2-4.7c-0.1-1.2-0.5-2.3-0.7-3.5c-1.3,0.9-2.7,1.7-3.8,2.8c-0.5,0.5-0.1,1.7-0.6,2.3
		c-0.5,0.8-1.5,1.2-2.2,1.8c-0.2-0.8-0.6-1.7-0.5-2.4c0.9-4.3,5-7.4,9.4-7.1c1.5,0.1,3-0.1,4.4,0.1c0.5,0,1.3,0.4,1.4,0.9
		c0.2,0.5-0.1,1.2-0.2,1.9c-0.5-0.1-1.1-0.1-1.6-0.3c-2.5-0.9-3-0.7-3.2,1.4c-0.1,2,0.6,2.6,2.5,2c0.4-0.1,1.3,0,1.3,0.1
		c0,0.9,0,1.8,0,2.7c-0.5-0.1-0.9-0.3-1.4-0.3c-0.8,0-1.5,0.2-2.3,0.3c0.3,1.4,0.6,2.8,1,4.2c0.1,0.2,0.8,0.2,1.1,0.4
		c0.3,0.2,0.5,0.5,0.7,0.8c-0.3,0.2-0.7,0.5-1,0.5C72.6,407.3,71.4,407.2,70.8,407.2z"/>
	<path d="M150.8,392.9c0.4,0,0.8-0.2,1.2-0.1c0.6,0.1,1.2,0.4,1.9,0.6c-0.5,0.3-1.2,0.5-1.5,0.9c-1.4,2.2-3,4.3-3.9,6.7
		c-0.7,1.7-0.9,4.1,2.2,4.3c0.4,0,0.7,0.6,1.1,0.9c-0.5,0.5-1,1.3-1.6,1.4c-2.4,0.1-4.9,0.1-7.4-0.1c-0.3,0-1-0.9-0.9-1.1
		c0.2-0.5,0.8-1.2,1.2-1.1c2.1,0.2,1.7-1,1.7-2.3c0.2-4-2.5-6.1-5.4-8.1c-0.5-0.3-0.7-0.9-1.1-1.4c0.5-0.3,1-0.7,1.5-0.8
		c1.2-0.1,2.5,0.1,3.7,0.2c0.9,0.1,1.3,0.2,1.1,1.5c-0.1,1.1,1,2.3,1.6,3.5c0,0.1,0.5,0.1,0.6,0c0.5-1,1.7-2.5,1.4-3
		c-2.2-3.4,1.2-1.5,1.9-2.1C150.5,392.9,150.7,393,150.8,392.9z"/>
	<path d="M380,407.2c-0.8,0-1.7,0.1-2.5,0c-0.6-0.1-1.1-0.5-1.6-0.8c0.4-0.4,0.9-0.8,1.3-1.1c0.2-0.1,0.6-0.2,0.7-0.3
		c0.3-1.9,0.4-3.7,0.7-5.6c0.3-1.9,0.6-3.8-1.8-4.7c-0.3-0.1-0.5-0.7-0.8-1.1c0.3-0.2,0.7-0.6,1-0.6c2.4,0.1,4.8-0.1,7.1,0.4
		c2.4,0.6,2.9,2.8,1.8,5.2c-0.2,0.5-0.3,1.4-0.1,1.6c1.6,1.4,1.6,3.4,0.7,4.7c-0.8,1.2-2.6,1.7-4.1,2.3
		C381.7,407.4,380.8,407.2,380,407.2C380,407.2,380,407.2,380,407.2z M379.8,403.1c1,1.1,1.6,1.6,2.1,2.2c0.8-0.8,1.7-1.5,2.3-2.4
		c0.1-0.2-1.1-1.7-1.6-1.6C381.8,401.3,381.1,402.2,379.8,403.1z M382.5,395.2c-0.3,0-0.5,0-0.8,0c-0.3,0.7-0.8,1.5-0.8,2.2
		c0,0.7,0.7,1.4,1,2.1c0.6-0.7,1.6-1.3,1.6-2C383.7,396.8,382.9,396,382.5,395.2z"/>
	<path d="M50.7,399.5c0,0.8,0,1.6,0,2.5c-0.1,1.8,0.3,3.1,2.4,3.3c0.5,0.1,0.9,0.8,1.3,1.2c-0.6,0.3-1.1,0.8-1.7,0.8
		c-2.5,0-4.9,0-7.4-0.1c-0.5,0-1-0.2-1.5-0.4c0.3-0.5,0.5-1.1,0.9-1.3c0.9-0.6,2.6-0.9,2.7-1.6c0.4-2.5,0.4-5.1,0.4-7.6
		c0-0.4-1.1-1.1-1.6-1c-1.2,0.1-2.3,0.6-3.4,1.1c-0.5,0.2-0.8,0.8-1.2,1.3c-0.2-0.6-0.6-1.3-0.5-1.9c0.2-1.8,0.1-3.4,3.1-2.9
		c3.7,0.6,7.7-0.1,11.5-0.2c0.4,0,1.2,0.4,1.2,0.7c0.2,0.9,0.2,1.8,0,2.7c0,0.4-0.5,0.7-0.7,1.1c-0.3-0.3-0.7-0.5-0.8-0.8
		c-0.4-2.2-2.2-1.9-3.4-1.5c-0.7,0.2-1,1.7-1.3,2.7C50.6,398.2,50.7,398.9,50.7,399.5C50.7,399.5,50.7,399.5,50.7,399.5z"/>
	<path d="M274.5,399.6c0,1.2-0.3,2.5,0.1,3.4c0.4,0.9,1.7,1.5,2.5,2.2c0.4,0.4,0.8,0.9,1.1,1.4c-0.5,0.2-1.1,0.7-1.6,0.7
		c-2.5,0-4.9-0.1-7.4-0.1c-0.5,0-1-0.2-1.5-0.3c0.4-0.5,0.6-1.1,1.1-1.5c0.8-0.6,2.5-1,2.6-1.7c0.4-2.6,0.4-5.3,0.2-7.9
		c-0.1-1.3-3.9-0.9-4.8,0.4c-0.3,0.5-0.8,0.9-1.2,1.3c-0.2-0.6-0.5-1.3-0.5-1.9c0.1-1.8,0.1-3.3,3.1-2.9c3.8,0.5,7.7-0.1,11.5-0.2
		c2.4-0.1,1.1,1.7,1.3,2.6c0.1,0.6-0.4,1.3-0.7,1.9c-0.4-0.4-0.7-1.1-1.2-1.3c-1-0.5-2.1-1-3.2-0.9c-0.6,0-1.2,1.3-1.5,2.1
		C274.2,397.8,274.4,398.7,274.5,399.6C274.4,399.6,274.4,399.6,274.5,399.6z"/>
	<path d="M227.5,392.8c0.5,0,1,0,1.5,0c0.5,0.1,0.9,0.2,1.3,0.3c-0.3,0.4-0.6,0.7-0.8,1.1c-0.2,0.6-0.4,1.3-0.4,1.9
		c0,0.3,0.4,0.7,0.6,1c0.7,1.3,1.4,2.7,2.3,3.8c0.2,0.3,2.6-5.6,2.4-6.8c-0.1-0.4,0.4-1.2,0.6-1.2c1.5-0.1,3.1-0.1,4.7-0.1
		c0.3,0,0.7,0.4,0.8,0.7c0.1,0.2-0.2,0.7-0.4,0.7c-3.9,0.9-4.1,4.8-5.6,7.4c-0.9,1.5-1.1,3.4-1.7,5.1c-0.2,0.4-0.6,0.8-0.8,1.2
		c-0.4-0.3-1-0.6-1.2-1c-1.5-3.4-3-6.9-4.4-10.4c-0.2-0.5-0.3-1-0.5-1.4c-0.5-0.7-1.1-1.4-1.6-2.2c1.1-0.2,2.2-0.4,3.4-0.5
		C227.5,392.7,227.5,392.7,227.5,392.8z"/>
	<path d="M256.2,406.9c-0.4,0-0.8,0-1.2,0c-0.6,0-1.2-0.1-1.8-0.2c0.4-0.4,1-0.7,1.1-1.1c0-1.1,0-2.4-0.4-3.4
		c-0.2-0.4-2.1-0.6-2.3-0.4c-0.6,1-1.4,2.6-1,3.4c1,1.9,0.1,1.7-1.2,1.7c-1.1,0-2.1,0.2-3.2,0.2c-0.3,0-0.8-0.3-1-0.5
		c-0.1-0.1,0.1-0.7,0.2-0.8c3.4-1.5,3.5-5.1,5-7.8c0.7-1.2,0.7-2.7,1.3-4c0.3-0.7,1.1-1.3,1.6-1.9c0.5,0.7,1.3,1.4,1.5,2.2
		c0.7,2.9,1.2,5.9,2,8.9c0.2,0.8,1.2,1.5,1.9,2.2c0.4,0.4,0.8,0.7,1.2,1c-0.5,0.3-0.9,0.7-1.4,0.7C257.7,407.1,257,407,256.2,406.9z
		"/>
	<path d="M11.5,406.9c-0.4,0-1,0.1-1.7,0.1c-0.3,0-0.6-0.1-0.9-0.2c0.2-0.3,0.2-0.8,0.5-0.9c2.1-1.1,0.5-2.5,0.1-3.6
		c-0.2-0.4-2.1-0.7-2.2-0.5c-0.6,1-1.5,2.6-1.1,3.4c1,1.9,0.2,1.8-1.2,1.7c-0.4,0-0.8,0.1-1.2,0.1c-1-0.1-2-0.2-3.1-0.3
		c0.6-0.6,1.5-1.1,1.9-1.8c1.5-3.2,2.9-6.4,4.4-9.6c0.2-0.4,0.1-0.9,0.3-1.2c0.5-0.7,1.2-1.4,1.8-2c0.5,0.8,1.1,1.5,1.3,2.3
		c0.8,3,1.3,6.1,2.1,9.1c0.2,0.7,1.1,1.3,1.7,1.8c0.4,0.4,0.8,0.7,1.2,1c-0.5,0.3-1,0.7-1.6,0.8C13.1,407.1,12.5,407,11.5,406.9z"/>
	<path d="M291.7,407.2c-0.7,0-1.5,0-2.2,0c-0.9-0.1-1.7-0.2-2.6-0.3c0.6-0.5,1.3-0.9,1.8-1.5c0.4-0.4,0.8-0.9,0.8-1.4
		c0.1-2.2,0.1-4.4,0.1-6.6c0-1.2,0.4-2.6-1.6-2.7c-0.2,0-0.7-0.7-0.6-0.9c0.2-0.4,0.6-0.8,1-0.8c2.4-0.1,4.8-0.4,7.1,0
		c0.8,0.1,1.3,1.9,1.9,3c-0.3,0.1-0.7,0.3-1,0.2c-0.5-0.1-0.8-0.6-1.3-0.7c-0.9-0.1-2.5-0.3-2.6,0c-0.4,1.1-0.3,2.4-0.5,3.6
		c0.8,0.1,1.6,0.2,2.5,0.2c0.4,0,1.2,0,1.2,0.1c0.1,0.7,0.1,1.4,0.1,2.1c0,0.1-0.8,0.1-1.3,0.1c-0.8,0-1.7,0-2.5,0
		c0,1-0.3,2.2,0.2,2.8c0.4,0.5,1.7,0.3,2.7,0.5c0.1,0,0.3-0.1,0.5-0.1c0.7,0,1.4,0,2.1,0c-0.7,0.8-1.3,2-2.2,2.3
		C294.3,407.5,292.9,407.2,291.7,407.2C291.7,407.2,291.7,407.2,291.7,407.2z"/>
	<path d="M211.7,407.1c-1.2,0.1-2.5,0.2-3.7,0.2c-0.3,0-0.6-0.4-1-0.6c0.2-0.3,0.4-0.8,0.7-0.8c1.8-0.4,1.9-1.6,1.8-3.2
		c-0.1-1.5,0.1-3.1,0.2-4.7c0-1.4,0.8-3.1-1.6-3.4c-0.2,0-0.5-0.7-0.4-1c0.1-0.3,0.5-0.6,0.9-0.7c2.5-0.1,5-0.4,7.4,0
		c0.7,0.1,1.2,2,1.7,3.1c-0.7-0.1-1.4-0.2-2-0.5c-2.4-1.1-3.2-0.8-3.6,1.3c-0.4,2.2,0.3,2.8,2.5,2.4c0.5-0.1,1.3-0.1,1.4,0.1
		c0.2,0.6,0.3,1.3,0.1,1.9c-0.1,0.2-1.1,0.1-1.6,0.2c-0.8,0.1-2.1-0.1-2.2,0.2c-0.3,0.7-0.3,1.8,0,2.5c0.3,0.5,1.3,0.6,2.1,0.8
		c0.4,0.1,0.8-0.2,1.2-0.2c0.7-0.1,1.4-0.2,2.1-0.3c0,0.2,0,0.5-0.1,0.7c-0.7,0.7-1.3,1.5-2.2,2c-0.5,0.3-1.3,0-1.9,0
		C212.8,407,212.3,407.1,211.7,407.1C211.7,407.1,211.7,407.1,211.7,407.1z"/>
	<path d="M176.4,407.2c-0.9,0-2.2,0.2-3.4,0.2c-0.3,0-0.7-0.3-1-0.5c0.2-0.3,0.3-0.8,0.6-0.9c2.1-0.5,2.1-1.8,1.9-3.6
		c-0.2-1.4,0.2-2.8,0.2-4.2c-0.1-1.4,0.8-3.3-1.7-3.6c-0.2,0-0.5-0.7-0.4-1c0.1-0.3,0.6-0.5,1-0.6c2.4-0.1,4.8-0.4,7.1,0
		c0.8,0.1,1.3,2,1.9,3.1c-0.7-0.2-1.5-0.3-2.2-0.6c-2.3-1-3.1-0.6-3.3,1.7c-0.2,2,0.5,2.8,2.5,2.1c0.4-0.1,1.3-0.1,1.4,0.1
		c0.2,0.6,0.2,1.3,0.1,1.9c-0.1,0.2-0.9,0.1-1.5,0.2c-0.8,0.1-2.2-0.1-2.4,0.3c-0.4,0.6-0.3,1.9,0.1,2.5c0.4,0.5,1.5,0.5,2.4,0.6
		c0.2,0,0.5-0.2,0.7-0.2c0.7-0.1,1.5-0.1,2.2-0.2c-0.7,0.9-1.3,2.1-2.3,2.5C179.3,407.5,177.9,407.2,176.4,407.2z"/>
	<path d="M343.5,399c0,1.6-0.1,3.3,0.1,4.9c0,0.5,0.8,0.9,1.2,1.4c0.3,0.4,0.6,0.8,0.9,1.2c-0.4,0.2-0.8,0.6-1.2,0.6
		c-1.5,0.1-3.1,0.1-4.6,0c-0.6,0-1.1-0.6-1.7-0.9c0.5-0.4,1-0.9,1.4-1.3c0.4-0.4,1.2-0.9,1.2-1.4c0.1-2.7,0.2-5.4,0.1-8.1
		c0-0.4-1-0.8-1.5-1.2c-0.3-0.3-0.6-0.6-0.9-0.9c0.3-0.2,0.7-0.5,1-0.5c2.5,0.1,5.1,0.2,7.6,0.5c1.7,0.2,2.6,2.7,2.3,5.2
		c-0.3,1.9-1.5,2.7-3.2,2.8c-0.5,0-1-0.4-1.5-0.6c0.3-0.3,0.6-0.8,1-1c1.7-1,2.2-2.8,0.9-3.8c-0.7-0.5-1.7-0.6-2.5-0.6
		c-0.2,0-0.4,1.2-0.6,1.9c-0.1,0.6,0,1.1,0,1.7C343.4,399,343.5,399,343.5,399z"/>
	<path d="M126.4,407.2c-1.2,0-2.5,0-3.7,0c-0.4,0-0.8-0.3-1.2-0.5c0.2-0.4,0.4-0.8,0.7-1.1c0.5-0.9,1.2-1.7,1.4-2.7
		c0.3-1.6,0.3-3.3,0.3-4.9c0-0.7,0-1.5-0.3-2.2c-1.3-2.6-1.3-2.6,1.6-2.6c1.2,0,2.5,0,3.7,0.1c0.3,0,0.8,0.4,0.8,0.7
		c0,0.3-0.3,0.9-0.6,0.9c-2.6,0.2-2.3,2.2-2.6,3.9c-0.2,1.1-0.2,2.3-0.2,3.4c0,2.8,1.1,3.4,3.7,2.3c0.2-0.1,0.4-0.2,0.7-0.3
		c0.8-0.4,1.7-0.9,2.5-1.3c0,0.4,0.2,0.8,0.1,1.1c-0.8,1.1-1.6,2.6-2.7,3.1c-1.2,0.5-2.7,0.1-4.1,0.1
		C126.4,407.1,126.4,407.2,126.4,407.2z"/>
	<path d="M108.4,407.2c-1.1,0-2.3,0-3.4,0c-0.4,0-0.8-0.3-1.2-0.4c0.2-0.4,0.4-0.8,0.6-1.2c0.5-0.9,1.4-1.8,1.4-2.7
		c0.1-2.8,1.4-5.9-1-8.5c-0.1-0.1,0.5-1.1,0.9-1.1c1.8-0.1,3.6-0.1,5.4,0c0.3,0,0.8,0.6,0.8,0.7c-0.2,0.4-0.5,1-0.8,1
		c-2.1,0.1-2.1,1.5-2.2,3.1c0,1.4-0.4,2.8-0.4,4.2c-0.1,2.7,1,3.3,3.5,2.4c0.3-0.1,0.6-0.3,0.9-0.4c0.9-0.4,1.8-0.8,2.7-1.2
		c0,0.3,0.1,0.7-0.1,0.9c-0.9,1.1-1.7,2.6-2.9,3.2C111.4,407.5,109.8,407.1,108.4,407.2C108.4,407.1,108.4,407.2,108.4,407.2z"/>
	<path d="M193.6,393.1c0.5,0,1-0.1,1.5,0c0.7,0.1,1.3,0.4,1.9,0.6c-0.5,0.5-1.1,0.9-1.6,1.4c-0.5,0.5-1.2,0.9-1.3,1.5
		c-0.3,1.9-0.3,3.9-0.5,5.9c-0.2,2.2,1.1,2.6,2.7,2.2c1.1-0.3,2.2-1.1,3.2-1.7c0.3-0.2,0.7-0.1,1.1-0.2c0,0.4,0.1,0.8-0.1,1.1
		c-0.7,2-1.7,3.5-4.2,3.2c-2-0.2-4.1,0-6.2,0c-0.5,0-0.9-0.4-1.4-0.6c0.3-0.4,0.5-0.7,0.8-1.1c0.5-0.8,1.2-1.6,1.4-2.5
		c0.3-1.7,0.2-3.4,0.3-5.2c0-0.6,0-1.4-0.3-1.9c-1.1-2.7-1.2-2.7,1.8-2.7C193.1,393.1,193.4,393.1,193.6,393.1z"/>
</g>
</svg>
