<?xml version="1.0" standalone="no"?>
<!DOCTYPE svg PUBLIC "-//W3C//DTD SVG 20010904//EN"
 "http://www.w3.org/TR/2001/REC-SVG-20010904/DTD/svg10.dtd">
<svg version="1.0" xmlns="http://www.w3.org/2000/svg"
 width="512.000000pt" height="512.000000pt" viewBox="0 0 512.000000 512.000000"
 preserveAspectRatio="xMidYMid meet">
<metadata>
Created by potrace 1.14, written by Peter Selinger 2001-2017
</metadata>
<g transform="translate(0.000000,512.000000) scale(0.100000,-0.100000)"
fill="#000000" stroke="none">
<path d="M145 4030 c-135 -211 -181 -558 -121 -912 85 -498 222 -821 490
-1158 103 -129 151 -227 181 -375 33 -157 68 -210 170 -256 46 -21 71 -24 290
-30 199 -6 253 -10 318 -28 71 -20 92 -20 150 -4 22 6 47 54 47 92 0 64 -104
114 -314 151 -358 62 -548 205 -824 620 -250 375 -433 856 -472 1245 -18 181
1 318 76 536 51 149 54 188 9 119z"/>
<path d="M4787 4013 c-14 -21 -112 -213 -217 -426 -196 -399 -205 -424 -175
-477 20 -36 19 -137 -3 -180 -12 -26 -33 -43 -78 -66 -91 -45 -187 -117 -288
-214 -113 -108 -182 -193 -308 -377 -164 -241 -204 -290 -373 -458 -170 -171
-260 -244 -391 -319 -215 -124 -563 -240 -719 -239 -69 0 -93 5 -175 38 -89
36 -102 39 -205 39 l-110 1 -3 -27 c-5 -43 36 -125 84 -167 79 -69 287 -113
438 -92 111 15 167 35 349 125 205 101 345 180 512 291 252 167 301 218 660
690 280 368 328 426 403 486 94 74 100 78 71 43 -14 -17 -38 -57 -53 -89 -19
-38 -39 -63 -60 -74 -39 -20 -96 -78 -96 -97 0 -13 4 -12 30 1 40 21 64 20 55
-2 -3 -10 -108 -204 -232 -432 -124 -227 -233 -437 -243 -466 -30 -88 -6 -218
53 -283 25 -27 39 -28 59 -4 8 9 131 275 273 590 142 316 272 590 288 610 36
45 66 109 67 141 0 12 32 78 70 145 51 88 70 131 70 157 0 45 26 71 101 98 31
12 65 31 76 44 12 12 64 112 116 222 52 110 138 290 191 399 71 147 96 210 96
239 0 44 -17 47 -36 6 -120 -252 -269 -540 -289 -559 -63 -59 -43 -1 100 299
80 166 145 311 145 322 0 20 -16 25 -37 11 -7 -4 -80 -146 -163 -315 -83 -169
-155 -309 -159 -312 -5 -2 -16 1 -25 8 -16 12 -5 40 133 326 83 172 151 319
151 325 0 20 -11 26 -30 16 -10 -5 -84 -139 -165 -297 -81 -159 -151 -294
-157 -300 -14 -17 -28 -16 -28 1 0 7 65 147 145 311 80 163 145 303 145 311 0
27 -38 13 -63 -23z"/>
<path d="M1074 3827 l25 -33 -101 -12 c-139 -16 -267 -63 -434 -156 -186 -105
-184 -104 -184 -125 0 -46 7 -46 453 4 509 58 563 60 632 24 64 -33 101 -85
140 -201 l31 -93 44 -3 c87 -4 111 -13 156 -54 30 -28 47 -54 54 -82 43 -168
110 -212 229 -151 91 46 141 135 141 249 -1 103 -51 187 -154 261 -89 63 -142
86 -345 156 -133 45 -201 74 -249 106 -37 24 -83 51 -102 59 -31 14 -326 84
-351 84 -5 0 1 -15 15 -33z"/>
<path d="M1061 3229 c-49 -8 -308 -102 -373 -136 -43 -21 -41 -50 6 -108 46
-57 49 -64 27 -58 -58 15 -70 -152 -18 -253 34 -66 113 -137 183 -164 31 -11
97 -25 147 -30 81 -8 115 -6 284 20 106 15 197 31 203 35 5 3 10 14 10 24 0
38 -25 44 -183 45 -168 2 -235 15 -343 68 -69 34 -154 104 -205 171 -26 33
-18 27 42 -28 87 -82 129 -105 194 -105 44 0 52 4 95 48 110 109 88 275 -44
344 -50 27 -32 34 50 19 138 -26 221 -93 342 -276 95 -143 154 -184 247 -169
52 8 72 19 118 62 57 55 50 87 -24 111 -41 13 -71 43 -123 123 -131 201 -375
300 -635 257z m-21 -205 c34 -60 6 -88 -39 -40 -17 18 -22 32 -17 50 9 36 30
32 56 -10z"/>
<path d="M2894 2980 c-143 -37 -313 -135 -396 -229 -56 -63 -102 -161 -93
-200 6 -27 9 -30 36 -24 16 3 46 21 67 40 48 45 133 88 202 102 30 6 127 10
215 9 143 -2 166 0 222 20 34 12 75 22 91 22 57 0 112 -69 112 -139 0 -16 8
-39 18 -51 25 -31 50 -21 107 42 71 79 91 177 54 263 -19 44 -18 46 31 64 32
12 45 22 45 36 0 17 -11 19 -230 20 -204 1 -239 4 -305 23 -89 26 -86 26 -176
2z"/>
<path d="M2720 2626 c-108 -20 -189 -53 -232 -96 -32 -32 -38 -44 -38 -81 0
-131 144 -280 271 -282 62 -1 95 22 126 89 36 79 41 149 14 209 -11 26 -21 49
-21 51 0 10 102 -43 146 -76 67 -51 98 -112 92 -181 -6 -55 8 -84 34 -74 30
12 101 114 114 164 32 126 -59 231 -231 266 -114 23 -189 26 -275 11z m25
-177 c24 -29 25 -33 10 -48 -15 -15 -19 -12 -56 27 -33 35 -38 46 -29 57 15
18 38 7 75 -36z"/>
<path d="M2516 2175 c-3 -8 -2 -25 3 -38 14 -37 163 -170 230 -205 l61 -33 54
15 c57 17 144 78 172 122 28 41 10 48 -143 48 l-138 1 -101 53 c-107 55 -128
61 -138 37z"/>
</g>
</svg>
